<svg id="visual" viewBox="0 0 540 960" width="540" height="960" xmlns="http://www.w3.org/2000/svg" xmlns:xlink="http://www.w3.org/1999/xlink" version="1.1"><rect x="0" y="0" width="540" height="960" fill="#001220"></rect><path d="M0 656L12.8 663.5C25.7 671 51.3 686 77 695C102.7 704 128.3 707 154 695C179.7 683 205.3 656 231.2 650.3C257 644.7 283 660.3 308.8 661.3C334.7 662.3 360.3 648.7 386 635.5C411.7 622.3 437.3 609.7 463 622.3C488.7 635 514.3 673 527.2 692L540 711L540 961L527.2 961C514.3 961 488.7 961 463 961C437.3 961 411.7 961 386 961C360.3 961 334.7 961 308.8 961C283 961 257 961 231.2 961C205.3 961 179.7 961 154 961C128.3 961 102.7 961 77 961C51.3 961 25.7 961 12.8 961L0 961Z" fill="#e8baf7"></path><path d="M0 683L12.8 692.2C25.7 701.3 51.3 719.7 77 725.2C102.7 730.7 128.3 723.3 154 717.8C179.7 712.3 205.3 708.7 231.2 705.2C257 701.7 283 698.3 308.8 701.3C334.7 704.3 360.3 713.7 386 725.7C411.7 737.7 437.3 752.3 463 754.7C488.7 757 514.3 747 527.2 742L540 737L540 961L527.2 961C514.3 961 488.7 961 463 961C437.3 961 411.7 961 386 961C360.3 961 334.7 961 308.8 961C283 961 257 961 231.2 961C205.3 961 179.7 961 154 961C128.3 961 102.7 961 77 961C51.3 961 25.7 961 12.8 961L0 961Z" fill="#c38fd5"></path><path d="M0 815L12.8 804.8C25.7 794.7 51.3 774.3 77 755.2C102.7 736 128.3 718 154 723.7C179.7 729.3 205.3 758.7 231.2 764.8C257 771 283 754 308.8 746.8C334.7 739.7 360.3 742.3 386 741.5C411.7 740.7 437.3 736.3 463 736.7C488.7 737 514.3 742 527.2 744.5L540 747L540 961L527.2 961C514.3 961 488.7 961 463 961C437.3 961 411.7 961 386 961C360.3 961 334.7 961 308.8 961C283 961 257 961 231.2 961C205.3 961 179.7 961 154 961C128.3 961 102.7 961 77 961C51.3 961 25.7 961 12.8 961L0 961Z" fill="#9f65b4"></path><path d="M0 837L12.8 825.7C25.7 814.3 51.3 791.7 77 791.8C102.7 792 128.3 815 154 831.3C179.7 847.7 205.3 857.3 231.2 851.7C257 846 283 825 308.8 817C334.7 809 360.3 814 386 812.2C411.7 810.3 437.3 801.7 463 796.3C488.7 791 514.3 789 527.2 788L540 787L540 961L527.2 961C514.3 961 488.7 961 463 961C437.3 961 411.7 961 386 961C360.3 961 334.7 961 308.8 961C283 961 257 961 231.2 961C205.3 961 179.7 961 154 961C128.3 961 102.7 961 77 961C51.3 961 25.7 961 12.8 961L0 961Z" fill="#7b3c94"></path><path d="M0 858L12.8 861.2C25.7 864.3 51.3 870.7 77 880.2C102.7 889.7 128.3 902.3 154 898.3C179.7 894.3 205.3 873.7 231.2 866.7C257 859.7 283 866.3 308.8 872.8C334.7 879.3 360.3 885.7 386 886.2C411.7 886.7 437.3 881.3 463 879.2C488.7 877 514.3 878 527.2 878.5L540 879L540 961L527.2 961C514.3 961 488.7 961 463 961C437.3 961 411.7 961 386 961C360.3 961 334.7 961 308.8 961C283 961 257 961 231.2 961C205.3 961 179.7 961 154 961C128.3 961 102.7 961 77 961C51.3 961 25.7 961 12.8 961L0 961Z" fill="#580c75"></path></svg>