<svg id="visual" viewBox="0 0 960 960" width="960" height="960" xmlns="http://www.w3.org/2000/svg" xmlns:xlink="http://www.w3.org/1999/xlink" version="1.1"><rect x="0" y="0" width="960" height="960" fill="#001220"></rect><path d="M0 656L22.8 663.5C45.7 671 91.3 686 137 695C182.7 704 228.3 707 274 695C319.7 683 365.3 656 411.2 650.3C457 644.7 503 660.3 548.8 661.3C594.7 662.3 640.3 648.7 686 635.5C731.7 622.3 777.3 609.7 823 622.3C868.7 635 914.3 673 937.2 692L960 711L960 961L937.2 961C914.3 961 868.7 961 823 961C777.3 961 731.7 961 686 961C640.3 961 594.7 961 548.8 961C503 961 457 961 411.2 961C365.3 961 319.7 961 274 961C228.3 961 182.7 961 137 961C91.3 961 45.7 961 22.8 961L0 961Z" fill="#e8baf7"></path><path d="M0 683L22.8 692.2C45.7 701.3 91.3 719.7 137 725.2C182.7 730.7 228.3 723.3 274 717.8C319.7 712.3 365.3 708.7 411.2 705.2C457 701.7 503 698.3 548.8 701.3C594.7 704.3 640.3 713.7 686 725.7C731.7 737.7 777.3 752.3 823 754.7C868.7 757 914.3 747 937.2 742L960 737L960 961L937.2 961C914.3 961 868.7 961 823 961C777.3 961 731.7 961 686 961C640.3 961 594.7 961 548.8 961C503 961 457 961 411.2 961C365.3 961 319.7 961 274 961C228.3 961 182.7 961 137 961C91.3 961 45.7 961 22.8 961L0 961Z" fill="#c38fd5"></path><path d="M0 815L22.8 804.8C45.7 794.7 91.3 774.3 137 755.2C182.7 736 228.3 718 274 723.7C319.7 729.3 365.3 758.7 411.2 764.8C457 771 503 754 548.8 746.8C594.7 739.7 640.3 742.3 686 741.5C731.7 740.7 777.3 736.3 823 736.7C868.7 737 914.3 742 937.2 744.5L960 747L960 961L937.2 961C914.3 961 868.7 961 823 961C777.3 961 731.7 961 686 961C640.3 961 594.7 961 548.8 961C503 961 457 961 411.2 961C365.3 961 319.7 961 274 961C228.3 961 182.7 961 137 961C91.3 961 45.7 961 22.8 961L0 961Z" fill="#9f65b4"></path><path d="M0 837L22.8 825.7C45.7 814.3 91.3 791.7 137 791.8C182.7 792 228.3 815 274 831.3C319.7 847.7 365.3 857.3 411.2 851.7C457 846 503 825 548.8 817C594.7 809 640.3 814 686 812.2C731.7 810.3 777.3 801.7 823 796.3C868.7 791 914.3 789 937.2 788L960 787L960 961L937.2 961C914.3 961 868.7 961 823 961C777.3 961 731.7 961 686 961C640.3 961 594.7 961 548.8 961C503 961 457 961 411.2 961C365.3 961 319.7 961 274 961C228.3 961 182.7 961 137 961C91.3 961 45.7 961 22.8 961L0 961Z" fill="#7b3c94"></path><path d="M0 858L22.8 861.2C45.7 864.3 91.3 870.7 137 880.2C182.7 889.7 228.3 902.3 274 898.3C319.7 894.3 365.3 873.7 411.2 866.7C457 859.7 503 866.3 548.8 872.8C594.7 879.3 640.3 885.7 686 886.2C731.7 886.7 777.3 881.3 823 879.2C868.7 877 914.3 878 937.2 878.5L960 879L960 961L937.2 961C914.3 961 868.7 961 823 961C777.3 961 731.7 961 686 961C640.3 961 594.7 961 548.8 961C503 961 457 961 411.2 961C365.3 961 319.7 961 274 961C228.3 961 182.7 961 137 961C91.3 961 45.7 961 22.8 961L0 961Z" fill="#580c75"></path></svg>