<svg id="visual" viewBox="0 0 150 960" width="150" height="960" xmlns="http://www.w3.org/2000/svg" xmlns:xlink="http://www.w3.org/1999/xlink" version="1.1"><rect x="0" y="0" width="150" height="960" fill="#001220"></rect><path d="M0 656L3.5 663.5C7 671 14 686 21.2 695C28.3 704 35.7 707 42.8 695C50 683 57 656 64.2 650.3C71.3 644.7 78.7 660.3 85.8 661.3C93 662.3 100 648.7 107.2 635.5C114.3 622.3 121.7 609.7 128.8 622.3C136 635 143 673 146.5 692L150 711L150 961L146.5 961C143 961 136 961 128.8 961C121.7 961 114.3 961 107.2 961C100 961 93 961 85.8 961C78.7 961 71.3 961 64.2 961C57 961 50 961 42.8 961C35.7 961 28.3 961 21.2 961C14 961 7 961 3.5 961L0 961Z" fill="#e8baf7"></path><path d="M0 683L3.5 692.2C7 701.3 14 719.7 21.2 725.2C28.3 730.7 35.7 723.3 42.8 717.8C50 712.3 57 708.7 64.2 705.2C71.3 701.7 78.7 698.3 85.8 701.3C93 704.3 100 713.7 107.2 725.7C114.3 737.7 121.7 752.3 128.8 754.7C136 757 143 747 146.5 742L150 737L150 961L146.5 961C143 961 136 961 128.8 961C121.7 961 114.3 961 107.2 961C100 961 93 961 85.8 961C78.7 961 71.3 961 64.2 961C57 961 50 961 42.8 961C35.7 961 28.3 961 21.2 961C14 961 7 961 3.5 961L0 961Z" fill="#c38fd5"></path><path d="M0 815L3.5 804.8C7 794.7 14 774.3 21.2 755.2C28.3 736 35.7 718 42.8 723.7C50 729.3 57 758.7 64.2 764.8C71.3 771 78.7 754 85.8 746.8C93 739.7 100 742.3 107.2 741.5C114.3 740.7 121.7 736.3 128.8 736.7C136 737 143 742 146.5 744.5L150 747L150 961L146.5 961C143 961 136 961 128.8 961C121.7 961 114.3 961 107.2 961C100 961 93 961 85.8 961C78.7 961 71.3 961 64.2 961C57 961 50 961 42.8 961C35.7 961 28.3 961 21.2 961C14 961 7 961 3.5 961L0 961Z" fill="#9f65b4"></path><path d="M0 837L3.5 825.7C7 814.3 14 791.7 21.2 791.8C28.3 792 35.7 815 42.8 831.3C50 847.7 57 857.3 64.2 851.7C71.3 846 78.7 825 85.8 817C93 809 100 814 107.2 812.2C114.3 810.3 121.7 801.7 128.8 796.3C136 791 143 789 146.5 788L150 787L150 961L146.5 961C143 961 136 961 128.8 961C121.7 961 114.3 961 107.2 961C100 961 93 961 85.8 961C78.7 961 71.3 961 64.2 961C57 961 50 961 42.8 961C35.7 961 28.3 961 21.2 961C14 961 7 961 3.5 961L0 961Z" fill="#7b3c94"></path><path d="M0 858L3.5 861.2C7 864.3 14 870.7 21.2 880.2C28.3 889.7 35.7 902.3 42.8 898.3C50 894.3 57 873.7 64.2 866.7C71.3 859.7 78.7 866.3 85.8 872.8C93 879.3 100 885.7 107.2 886.2C114.3 886.7 121.7 881.3 128.8 879.2C136 877 143 878 146.5 878.5L150 879L150 961L146.5 961C143 961 136 961 128.8 961C121.7 961 114.3 961 107.2 961C100 961 93 961 85.8 961C78.7 961 71.3 961 64.2 961C57 961 50 961 42.8 961C35.7 961 28.3 961 21.2 961C14 961 7 961 3.5 961L0 961Z" fill="#580c75"></path></svg>