<svg id="visual" viewBox="0 0 600 900" width="600" height="900" xmlns="http://www.w3.org/2000/svg" xmlns:xlink="http://www.w3.org/1999/xlink" version="1.1"><rect x="0" y="0" width="600" height="900" fill="#001220"></rect><path d="M0 615L14.3 622C28.7 629 57.3 643 85.8 651.5C114.3 660 142.7 663 171.2 651.8C199.7 640.7 228.3 615.3 257 610C285.7 604.7 314.3 619.3 343 620.2C371.7 621 400.3 608 428.8 595.5C457.3 583 485.7 571 514.2 583C542.7 595 571.3 631 585.7 649L600 667L600 901L585.7 901C571.3 901 542.7 901 514.2 901C485.7 901 457.3 901 428.8 901C400.3 901 371.7 901 343 901C314.3 901 285.7 901 257 901C228.3 901 199.7 901 171.2 901C142.7 901 114.3 901 85.8 901C57.3 901 28.7 901 14.3 901L0 901Z" fill="#e8baf7"></path><path d="M0 640L14.3 648.7C28.7 657.3 57.3 674.7 85.8 679.8C114.3 685 142.7 678 171.2 672.8C199.7 667.7 228.3 664.3 257 661C285.7 657.7 314.3 654.3 343 657C371.7 659.7 400.3 668.3 428.8 679.7C457.3 691 485.7 705 514.2 707.3C542.7 709.7 571.3 700.3 585.7 695.7L600 691L600 901L585.7 901C571.3 901 542.7 901 514.2 901C485.7 901 457.3 901 428.8 901C400.3 901 371.7 901 343 901C314.3 901 285.7 901 257 901C228.3 901 199.7 901 171.2 901C142.7 901 114.3 901 85.8 901C57.3 901 28.7 901 14.3 901L0 901Z" fill="#c38fd5"></path><path d="M0 764L14.3 754.5C28.7 745 57.3 726 85.8 708C114.3 690 142.7 673 171.2 678.2C199.7 683.3 228.3 710.7 257 716.5C285.7 722.3 314.3 706.7 343 700C371.7 693.3 400.3 695.7 428.8 694.8C457.3 694 485.7 690 514.2 690.3C542.7 690.7 571.3 695.3 585.7 697.7L600 700L600 901L585.7 901C571.3 901 542.7 901 514.2 901C485.7 901 457.3 901 428.8 901C400.3 901 371.7 901 343 901C314.3 901 285.7 901 257 901C228.3 901 199.7 901 171.2 901C142.7 901 114.3 901 85.8 901C57.3 901 28.7 901 14.3 901L0 901Z" fill="#9f65b4"></path><path d="M0 785L14.3 774.3C28.7 763.7 57.3 742.3 85.8 742.5C114.3 742.7 142.7 764.3 171.2 779.7C199.7 795 228.3 804 257 798.5C285.7 793 314.3 773 343 765.3C371.7 757.7 400.3 762.3 428.8 760.8C457.3 759.3 485.7 751.7 514.2 746.8C542.7 742 571.3 740 585.7 739L600 738L600 901L585.7 901C571.3 901 542.7 901 514.2 901C485.7 901 457.3 901 428.8 901C400.3 901 371.7 901 343 901C314.3 901 285.7 901 257 901C228.3 901 199.7 901 171.2 901C142.7 901 114.3 901 85.8 901C57.3 901 28.7 901 14.3 901L0 901Z" fill="#7b3c94"></path><path d="M0 804L14.3 807C28.7 810 57.3 816 85.8 825C114.3 834 142.7 846 171.2 842.3C199.7 838.7 228.3 819.3 257 812.8C285.7 806.3 314.3 812.7 343 818.7C371.7 824.7 400.3 830.3 428.8 830.7C457.3 831 485.7 826 514.2 824C542.7 822 571.3 823 585.7 823.5L600 824L600 901L585.7 901C571.3 901 542.7 901 514.2 901C485.7 901 457.3 901 428.8 901C400.3 901 371.7 901 343 901C314.3 901 285.7 901 257 901C228.3 901 199.7 901 171.2 901C142.7 901 114.3 901 85.8 901C57.3 901 28.7 901 14.3 901L0 901Z" fill="#580c75"></path></svg>