<svg id="visual" viewBox="0 0 500 1500" width="500" height="1500" xmlns="http://www.w3.org/2000/svg" xmlns:xlink="http://www.w3.org/1999/xlink" version="1.1"><rect x="0" y="0" width="500" height="1500" fill="#001220"></rect><path d="M0 1026L11.8 1037.7C23.7 1049.3 47.3 1072.7 71.2 1086.7C95 1100.7 119 1105.3 142.8 1086.7C166.7 1068 190.3 1026 214.2 1017.2C238 1008.3 262 1032.7 285.8 1034.2C309.7 1035.7 333.3 1014.3 357.2 993.7C381 973 405 953 428.8 972.8C452.7 992.7 476.3 1052.3 488.2 1082.2L500 1112L500 1501L488.2 1501C476.3 1501 452.7 1501 428.8 1501C405 1501 381 1501 357.2 1501C333.3 1501 309.7 1501 285.8 1501C262 1501 238 1501 214.2 1501C190.3 1501 166.7 1501 142.8 1501C119 1501 95 1501 71.2 1501C47.3 1501 23.7 1501 11.8 1501L0 1501Z" fill="#e8baf7"></path><path d="M0 1068L11.8 1082.3C23.7 1096.7 47.3 1125.3 71.2 1133.8C95 1142.3 119 1130.7 142.8 1122C166.7 1113.3 190.3 1107.7 214.2 1102.2C238 1096.7 262 1091.3 285.8 1096C309.7 1100.7 333.3 1115.3 357.2 1134.2C381 1153 405 1176 428.8 1179.8C452.7 1183.7 476.3 1168.3 488.2 1160.7L500 1153L500 1501L488.2 1501C476.3 1501 452.7 1501 428.8 1501C405 1501 381 1501 357.2 1501C333.3 1501 309.7 1501 285.8 1501C262 1501 238 1501 214.2 1501C190.3 1501 166.7 1501 142.8 1501C119 1501 95 1501 71.2 1501C47.3 1501 23.7 1501 11.8 1501L0 1501Z" fill="#c38fd5"></path><path d="M0 1274L11.8 1258.2C23.7 1242.3 47.3 1210.7 71.2 1180.7C95 1150.7 119 1122.3 142.8 1131C166.7 1139.7 190.3 1185.3 214.2 1195C238 1204.7 262 1178.3 285.8 1167.2C309.7 1156 333.3 1160 357.2 1158.7C381 1157.3 405 1150.7 428.8 1151.3C452.7 1152 476.3 1160 488.2 1164L500 1168L500 1501L488.2 1501C476.3 1501 452.7 1501 428.8 1501C405 1501 381 1501 357.2 1501C333.3 1501 309.7 1501 285.8 1501C262 1501 238 1501 214.2 1501C190.3 1501 166.7 1501 142.8 1501C119 1501 95 1501 71.2 1501C47.3 1501 23.7 1501 11.8 1501L0 1501Z" fill="#9f65b4"></path><path d="M0 1309L11.8 1291.3C23.7 1273.7 47.3 1238.3 71.2 1238.5C95 1238.7 119 1274.3 142.8 1299.7C166.7 1325 190.3 1340 214.2 1331C238 1322 262 1289 285.8 1276.5C309.7 1264 333.3 1272 357.2 1269.3C381 1266.7 405 1253.3 428.8 1245C452.7 1236.7 476.3 1233.3 488.2 1231.7L500 1230L500 1501L488.2 1501C476.3 1501 452.7 1501 428.8 1501C405 1501 381 1501 357.2 1501C333.3 1501 309.7 1501 285.8 1501C262 1501 238 1501 214.2 1501C190.3 1501 166.7 1501 142.8 1501C119 1501 95 1501 71.2 1501C47.3 1501 23.7 1501 11.8 1501L0 1501Z" fill="#7b3c94"></path><path d="M0 1340L11.8 1345C23.7 1350 47.3 1360 71.2 1375.2C95 1390.3 119 1410.7 142.8 1404.7C166.7 1398.7 190.3 1366.3 214.2 1355.3C238 1344.3 262 1354.7 285.8 1364.7C309.7 1374.7 333.3 1384.3 357.2 1385C381 1385.7 405 1377.3 428.8 1374C452.7 1370.7 476.3 1372.3 488.2 1373.2L500 1374L500 1501L488.2 1501C476.3 1501 452.7 1501 428.8 1501C405 1501 381 1501 357.2 1501C333.3 1501 309.7 1501 285.8 1501C262 1501 238 1501 214.2 1501C190.3 1501 166.7 1501 142.8 1501C119 1501 95 1501 71.2 1501C47.3 1501 23.7 1501 11.8 1501L0 1501Z" fill="#580c75"></path></svg>