<svg id="visual" viewBox="0 0 300 1000" width="300" height="1000" xmlns="http://www.w3.org/2000/svg" xmlns:xlink="http://www.w3.org/1999/xlink" version="1.1"><rect x="0" y="0" width="300" height="1000" fill="#001220"></rect><path d="M0 683L7.2 691C14.3 699 28.7 715 43 724.5C57.3 734 71.7 737 86 724.5C100.3 712 114.7 684 128.8 678C143 672 157 688 171.2 688.8C185.3 689.7 199.7 675.3 214 661.7C228.3 648 242.7 635 257 648.3C271.3 661.7 285.7 701.3 292.8 721.2L300 741L300 1001L292.8 1001C285.7 1001 271.3 1001 257 1001C242.7 1001 228.3 1001 214 1001C199.7 1001 185.3 1001 171.2 1001C157 1001 143 1001 128.8 1001C114.7 1001 100.3 1001 86 1001C71.7 1001 57.3 1001 43 1001C28.7 1001 14.3 1001 7.2 1001L0 1001Z" fill="#e8baf7"></path><path d="M0 712L7.2 721.5C14.3 731 28.7 750 43 755.7C57.3 761.3 71.7 753.7 86 747.8C100.3 742 114.7 738 128.8 734.3C143 730.7 157 727.3 171.2 730.5C185.3 733.7 199.7 743.3 214 755.8C228.3 768.3 242.7 783.7 257 786.2C271.3 788.7 285.7 778.3 292.8 773.2L300 768L300 1001L292.8 1001C285.7 1001 271.3 1001 257 1001C242.7 1001 228.3 1001 214 1001C199.7 1001 185.3 1001 171.2 1001C157 1001 143 1001 128.8 1001C114.7 1001 100.3 1001 86 1001C71.7 1001 57.3 1001 43 1001C28.7 1001 14.3 1001 7.2 1001L0 1001Z" fill="#c38fd5"></path><path d="M0 849L7.2 838.5C14.3 828 28.7 807 43 787C57.3 767 71.7 748 86 753.8C100.3 759.7 114.7 790.3 128.8 796.8C143 803.3 157 785.7 171.2 778.2C185.3 770.7 199.7 773.3 214 772.3C228.3 771.3 242.7 766.7 257 767C271.3 767.3 285.7 772.7 292.8 775.3L300 778L300 1001L292.8 1001C285.7 1001 271.3 1001 257 1001C242.7 1001 228.3 1001 214 1001C199.7 1001 185.3 1001 171.2 1001C157 1001 143 1001 128.8 1001C114.7 1001 100.3 1001 86 1001C71.7 1001 57.3 1001 43 1001C28.7 1001 14.3 1001 7.2 1001L0 1001Z" fill="#9f65b4"></path><path d="M0 872L7.2 860.3C14.3 848.7 28.7 825.3 43 825.5C57.3 825.7 71.7 849.3 86 866.2C100.3 883 114.7 893 128.8 887C143 881 157 859 171.2 850.7C185.3 842.3 199.7 847.7 214 845.8C228.3 844 242.7 835 257 829.5C271.3 824 285.7 822 292.8 821L300 820L300 1001L292.8 1001C285.7 1001 271.3 1001 257 1001C242.7 1001 228.3 1001 214 1001C199.7 1001 185.3 1001 171.2 1001C157 1001 143 1001 128.8 1001C114.7 1001 100.3 1001 86 1001C71.7 1001 57.3 1001 43 1001C28.7 1001 14.3 1001 7.2 1001L0 1001Z" fill="#7b3c94"></path><path d="M0 893L7.2 896.3C14.3 899.7 28.7 906.3 43 916.5C57.3 926.7 71.7 940.3 86 936.3C100.3 932.3 114.7 910.7 128.8 903.3C143 896 157 903 171.2 909.7C185.3 916.3 199.7 922.7 214 923.2C228.3 923.7 242.7 918.3 257 916.2C271.3 914 285.7 915 292.8 915.5L300 916L300 1001L292.8 1001C285.7 1001 271.3 1001 257 1001C242.7 1001 228.3 1001 214 1001C199.7 1001 185.3 1001 171.2 1001C157 1001 143 1001 128.8 1001C114.7 1001 100.3 1001 86 1001C71.7 1001 57.3 1001 43 1001C28.7 1001 14.3 1001 7.2 1001L0 1001Z" fill="#580c75"></path></svg>